<?xml version="1.0" standalone="no"?>
<!DOCTYPE svg PUBLIC "-//W3C//DTD SVG 20010904//EN"
 "http://www.w3.org/TR/2001/REC-SVG-20010904/DTD/svg10.dtd">
<svg version="1.0" xmlns="http://www.w3.org/2000/svg"
 width="96.000000pt" height="96.000000pt" viewBox="0 0 96.000000 96.000000"
 preserveAspectRatio="xMidYMid meet">

<g transform="translate(0.000000,96.000000) scale(0.100000,-0.100000)"
fill="#000000" stroke="none">
<path d="M0 480 l0 -480 480 0 480 0 0 480 0 480 -480 0 -480 0 0 -480z m655
0 l0 -195 -175 0 -175 0 -3 185 c-1 101 0 190 3 197 3 11 42 13 177 11 l173
-3 0 -195z"/>
<path d="M505 500 l-39 -40 -26 25 c-24 23 -28 24 -40 10 -11 -14 -8 -22 26
-56 l38 -39 58 57 c44 44 55 60 46 70 -15 19 -20 17 -63 -27z"/>
</g>
</svg>
